solid TODAS LAS PARTES agujeros mayores
facet normal -1.0 0.0 0.0
  outer loop
    vertex 421.5158212273877 -114.06434263510359 1.5000000000000198
    vertex 421.5158212273877 -117.06434263510357 -1.49999999999998
    vertex 421.5158212273877 -117.06434263510357 1.5000000000000198
  endloop
endfacet
facet normal -1.0 0.0 0.0
  outer loop
    vertex 421.5158212273877 -117.06434263510357 -1.49999999999998
    vertex 421.5158212273877 -114.06434263510359 1.5000000000000198
    vertex 421.5158212273877 -114.06434263510359 -1.49999999999998
  endloop
endfacet
facet normal 0.0 -1.0 0.0
  outer loop
    vertex 434.21582122738766 -117.06434263510357 -1.49999999999998
    vertex 431.21582122738766 -117.06434263510357 0.5000000000000199
    vertex 421.5158212273877 -117.06434263510357 -1.49999999999998
  endloop
endfacet
facet normal 0.0 -1.0 0.0
  outer loop
    vertex 431.21582122738766 -117.06434263510357 0.5000000000000199
    vertex 434.21582122738766 -117.06434263510357 -1.49999999999998
    vertex 434.21582122738766 -117.06434263510357 1.5000000000000198
  endloop
endfacet
facet normal 0.0 -1.0 0.0
  outer loop
    vertex 431.21582122738766 -117.06434263510357 0.5000000000000199
    vertex 434.21582122738766 -117.06434263510357 1.5000000000000198
    vertex 431.21582122738766 -117.06434263510357 1.5000000000000198
  endloop
endfacet
facet normal 0.0 -1.0 0.0
  outer loop
    vertex 421.5158212273877 -117.06434263510357 -1.49999999999998
    vertex 424.51582122738773 -117.06434263510357 0.5000000000000199
    vertex 421.5158212273877 -117.06434263510357 1.5000000000000198
  endloop
endfacet
facet normal 0.0 -1.0 0.0
  outer loop
    vertex 424.51582122738773 -117.06434263510357 0.5000000000000199
    vertex 421.5158212273877 -117.06434263510357 -1.49999999999998
    vertex 431.21582122738766 -117.06434263510357 0.5000000000000199
  endloop
endfacet
facet normal 0.0 -1.0 0.0
  outer loop
    vertex 421.5158212273877 -117.06434263510357 1.5000000000000198
    vertex 424.51582122738773 -117.06434263510357 0.5000000000000199
    vertex 424.51582122738773 -117.06434263510357 1.5000000000000198
  endloop
endfacet
facet normal 0.0 0.0 -1.0
  outer loop
    vertex 421.5158212273877 -92.06434263510357 -1.49999999999998
    vertex 424.51582122738773 -95.06434263510357 -1.49999999999998
    vertex 421.5158212273877 -106.06434263510357 -1.49999999999998
  endloop
endfacet
facet normal 0.0 0.0 -1.0
  outer loop
    vertex 424.51582122738773 -95.06434263510357 -1.49999999999998
    vertex 421.5158212273877 -92.06434263510357 -1.49999999999998
    vertex 434.21582122738766 -92.06434263510357 -1.49999999999998
  endloop
endfacet
facet normal 0.0 0.0 -1.0
  outer loop
    vertex 424.51582122738773 -95.06434263510357 -1.49999999999998
    vertex 434.21582122738766 -92.06434263510357 -1.49999999999998
    vertex 434.21582122738766 -95.06434263510357 -1.49999999999998
  endloop
endfacet
facet normal 0.0 0.0 -1.0
  outer loop
    vertex 421.5158212273877 -106.06434263510357 -1.49999999999998
    vertex 424.51582122738773 -103.06434263510357 -1.49999999999998
    vertex 431.21582122738766 -106.06434263510357 -1.49999999999998
  endloop
endfacet
facet normal 0.0 0.0 -1.0
  outer loop
    vertex 424.51582122738773 -103.06434263510357 -1.49999999999998
    vertex 421.5158212273877 -106.06434263510357 -1.49999999999998
    vertex 424.51582122738773 -95.06434263510357 -1.49999999999998
  endloop
endfacet
facet normal 0.0 0.0 -1.0
  outer loop
    vertex 431.21582122738766 -106.06434263510357 -1.49999999999998
    vertex 424.51582122738773 -103.06434263510357 -1.49999999999998
    vertex 434.21582122738766 -103.06434263510357 -1.49999999999998
  endloop
endfacet
facet normal 0.0 0.0 -1.0
  outer loop
    vertex 431.21582122738766 -106.06434263510357 -1.49999999999998
    vertex 434.21582122738766 -103.06434263510357 -1.49999999999998
    vertex 431.21582122738766 -114.06434263510359 -1.49999999999998
  endloop
endfacet
facet normal 0.0 0.0 -1.0
  outer loop
    vertex 431.21582122738766 -114.06434263510359 -1.49999999999998
    vertex 421.5158212273877 -117.06434263510357 -1.49999999999998
    vertex 421.5158212273877 -114.06434263510359 -1.49999999999998
  endloop
endfacet
facet normal 0.0 0.0 -1.0
  outer loop
    vertex 421.5158212273877 -117.06434263510357 -1.49999999999998
    vertex 431.21582122738766 -114.06434263510359 -1.49999999999998
    vertex 434.21582122738766 -117.06434263510357 -1.49999999999998
  endloop
endfacet
facet normal 0.0 0.0 -1.0
  outer loop
    vertex 434.21582122738766 -117.06434263510357 -1.49999999999998
    vertex 431.21582122738766 -114.06434263510359 -1.49999999999998
    vertex 434.21582122738766 -103.06434263510357 -1.49999999999998
  endloop
endfacet
facet normal 0.0 1.0 0.0
  outer loop
    vertex 421.5158212273877 -114.06434263510359 -1.49999999999998
    vertex 424.51582122738773 -114.06434263510359 0.5000000000000199
    vertex 431.21582122738766 -114.06434263510359 -1.49999999999998
  endloop
endfacet
facet normal 0.0 1.0 0.0
  outer loop
    vertex 424.51582122738773 -114.06434263510359 0.5000000000000199
    vertex 421.5158212273877 -114.06434263510359 -1.49999999999998
    vertex 421.5158212273877 -114.06434263510359 1.5000000000000198
  endloop
endfacet
facet normal 0.0 1.0 0.0
  outer loop
    vertex 424.51582122738773 -114.06434263510359 0.5000000000000199
    vertex 421.5158212273877 -114.06434263510359 1.5000000000000198
    vertex 424.51582122738773 -114.06434263510359 1.5000000000000198
  endloop
endfacet
facet normal 0.0 1.0 0.0
  outer loop
    vertex 431.21582122738766 -114.06434263510359 0.5000000000000199
    vertex 431.21582122738766 -114.06434263510359 -1.49999999999998
    vertex 424.51582122738773 -114.06434263510359 0.5000000000000199
  endloop
endfacet
facet normal 0.0 0.0 1.0
  outer loop
    vertex 424.51582122738773 -117.06434263510357 1.5000000000000198
    vertex 421.5158212273877 -114.06434263510359 1.5000000000000198
    vertex 421.5158212273877 -117.06434263510357 1.5000000000000198
  endloop
endfacet
facet normal 0.0 0.0 1.0
  outer loop
    vertex 421.5158212273877 -114.06434263510359 1.5000000000000198
    vertex 424.51582122738773 -117.06434263510357 1.5000000000000198
    vertex 424.51582122738773 -114.06434263510359 1.5000000000000198
  endloop
endfacet
facet normal 1.0 0.0 0.0
  outer loop
    vertex 424.51582122738773 -114.06434263510359 0.5000000000000199
    vertex 424.51582122738773 -117.06434263510357 1.5000000000000198
    vertex 424.51582122738773 -117.06434263510357 0.5000000000000199
  endloop
endfacet
facet normal 1.0 0.0 0.0
  outer loop
    vertex 424.51582122738773 -117.06434263510357 1.5000000000000198
    vertex 424.51582122738773 -114.06434263510359 0.5000000000000199
    vertex 424.51582122738773 -114.06434263510359 1.5000000000000198
  endloop
endfacet
facet normal 0.0 0.0 1.0
  outer loop
    vertex 431.21582122738766 -117.06434263510357 0.5000000000000199
    vertex 424.51582122738773 -114.06434263510359 0.5000000000000199
    vertex 424.51582122738773 -117.06434263510357 0.5000000000000199
  endloop
endfacet
facet normal 0.0 0.0 1.0
  outer loop
    vertex 424.51582122738773 -114.06434263510359 0.5000000000000199
    vertex 431.21582122738766 -117.06434263510357 0.5000000000000199
    vertex 431.21582122738766 -114.06434263510359 0.5000000000000199
  endloop
endfacet
facet normal -1.0 0.0 0.0
  outer loop
    vertex 431.21582122738766 -106.06434263510357 1.5000000000000198
    vertex 431.21582122738766 -117.06434263510357 0.5000000000000199
    vertex 431.21582122738766 -117.06434263510357 1.5000000000000198
  endloop
endfacet
facet normal -1.0 0.0 0.0
  outer loop
    vertex 431.21582122738766 -117.06434263510357 0.5000000000000199
    vertex 431.21582122738766 -106.06434263510357 1.5000000000000198
    vertex 431.21582122738766 -114.06434263510359 0.5000000000000199
  endloop
endfacet
facet normal -1.0 0.0 0.0
  outer loop
    vertex 431.21582122738766 -114.06434263510359 0.5000000000000199
    vertex 431.21582122738766 -106.06434263510357 1.5000000000000198
    vertex 431.21582122738766 -114.06434263510359 -1.49999999999998
  endloop
endfacet
facet normal -1.0 0.0 0.0
  outer loop
    vertex 431.21582122738766 -114.06434263510359 -1.49999999999998
    vertex 431.21582122738766 -106.06434263510357 1.5000000000000198
    vertex 431.21582122738766 -106.06434263510357 -1.49999999999998
  endloop
endfacet
facet normal 0.0 0.0 1.0
  outer loop
    vertex 434.21582122738766 -117.06434263510357 1.5000000000000198
    vertex 431.21582122738766 -106.06434263510357 1.5000000000000198
    vertex 431.21582122738766 -117.06434263510357 1.5000000000000198
  endloop
endfacet
facet normal 0.0 0.0 1.0
  outer loop
    vertex 421.5158212273877 -106.06434263510357 1.5000000000000198
    vertex 424.51582122738773 -103.06434263510357 1.5000000000000198
    vertex 421.5158212273877 -92.06434263510357 1.5000000000000198
  endloop
endfacet
facet normal 0.0 0.0 1.0
  outer loop
    vertex 424.51582122738773 -103.06434263510357 1.5000000000000198
    vertex 421.5158212273877 -106.06434263510357 1.5000000000000198
    vertex 431.21582122738766 -106.06434263510357 1.5000000000000198
  endloop
endfacet
facet normal 0.0 0.0 1.0
  outer loop
    vertex 424.51582122738773 -103.06434263510357 1.5000000000000198
    vertex 431.21582122738766 -106.06434263510357 1.5000000000000198
    vertex 434.21582122738766 -103.06434263510357 1.5000000000000198
  endloop
endfacet
facet normal 0.0 0.0 1.0
  outer loop
    vertex 434.21582122738766 -103.06434263510357 1.5000000000000198
    vertex 431.21582122738766 -106.06434263510357 1.5000000000000198
    vertex 434.21582122738766 -117.06434263510357 1.5000000000000198
  endloop
endfacet
facet normal 0.0 0.0 1.0
  outer loop
    vertex 424.51582122738773 -92.06434263510357 1.5000000000000198
    vertex 421.5158212273877 -92.06434263510357 1.5000000000000198
    vertex 424.51582122738773 -103.06434263510357 1.5000000000000198
  endloop
endfacet
facet normal 1.0 0.0 0.0
  outer loop
    vertex 434.21582122738766 -103.06434263510357 -1.49999999999998
    vertex 434.21582122738766 -117.06434263510357 1.5000000000000198
    vertex 434.21582122738766 -117.06434263510357 -1.49999999999998
  endloop
endfacet
facet normal 1.0 0.0 0.0
  outer loop
    vertex 434.21582122738766 -117.06434263510357 1.5000000000000198
    vertex 434.21582122738766 -103.06434263510357 -1.49999999999998
    vertex 434.21582122738766 -103.06434263510357 1.5000000000000198
  endloop
endfacet
facet normal 0.0 1.0 0.0
  outer loop
    vertex 424.51582122738773 -103.06434263510357 1.5000000000000198
    vertex 434.21582122738766 -103.06434263510357 -1.49999999999998
    vertex 424.51582122738773 -103.06434263510357 -1.49999999999998
  endloop
endfacet
facet normal 0.0 1.0 0.0
  outer loop
    vertex 434.21582122738766 -103.06434263510357 -1.49999999999998
    vertex 424.51582122738773 -103.06434263510357 1.5000000000000198
    vertex 434.21582122738766 -103.06434263510357 1.5000000000000198
  endloop
endfacet
facet normal 1.0 0.0 0.0
  outer loop
    vertex 424.51582122738773 -95.06434263510357 -1.49999999999998
    vertex 424.51582122738773 -103.06434263510357 1.5000000000000198
    vertex 424.51582122738773 -103.06434263510357 -1.49999999999998
  endloop
endfacet
facet normal 1.0 0.0 0.0
  outer loop
    vertex 424.51582122738773 -103.06434263510357 1.5000000000000198
    vertex 424.51582122738773 -95.06434263510357 -1.49999999999998
    vertex 424.51582122738773 -95.06434263510357 0.5000000000000199
  endloop
endfacet
facet normal 1.0 0.0 0.0
  outer loop
    vertex 424.51582122738773 -103.06434263510357 1.5000000000000198
    vertex 424.51582122738773 -95.06434263510357 0.5000000000000199
    vertex 424.51582122738773 -92.06434263510357 1.5000000000000198
  endloop
endfacet
facet normal 1.0 0.0 0.0
  outer loop
    vertex 424.51582122738773 -92.06434263510357 1.5000000000000198
    vertex 424.51582122738773 -95.06434263510357 0.5000000000000199
    vertex 424.51582122738773 -92.06434263510357 0.5000000000000199
  endloop
endfacet
facet normal 0.0 -1.0 0.0
  outer loop
    vertex 434.21582122738766 -95.06434263510357 -1.49999999999998
    vertex 431.21582122738766 -95.06434263510357 0.5000000000000199
    vertex 424.51582122738773 -95.06434263510357 -1.49999999999998
  endloop
endfacet
facet normal 0.0 -1.0 0.0
  outer loop
    vertex 431.21582122738766 -95.06434263510357 0.5000000000000199
    vertex 434.21582122738766 -95.06434263510357 -1.49999999999998
    vertex 434.21582122738766 -95.06434263510357 1.5000000000000198
  endloop
endfacet
facet normal 0.0 -1.0 0.0
  outer loop
    vertex 431.21582122738766 -95.06434263510357 0.5000000000000199
    vertex 434.21582122738766 -95.06434263510357 1.5000000000000198
    vertex 431.21582122738766 -95.06434263510357 1.5000000000000198
  endloop
endfacet
facet normal 0.0 -1.0 0.0
  outer loop
    vertex 424.51582122738773 -95.06434263510357 0.5000000000000199
    vertex 424.51582122738773 -95.06434263510357 -1.49999999999998
    vertex 431.21582122738766 -95.06434263510357 0.5000000000000199
  endloop
endfacet
facet normal 1.0 0.0 0.0
  outer loop
    vertex 434.21582122738766 -92.06434263510357 -1.49999999999998
    vertex 434.21582122738766 -95.06434263510357 1.5000000000000198
    vertex 434.21582122738766 -95.06434263510357 -1.49999999999998
  endloop
endfacet
facet normal 1.0 0.0 0.0
  outer loop
    vertex 434.21582122738766 -95.06434263510357 1.5000000000000198
    vertex 434.21582122738766 -92.06434263510357 -1.49999999999998
    vertex 434.21582122738766 -92.06434263510357 1.5000000000000198
  endloop
endfacet
facet normal 0.0 1.0 0.0
  outer loop
    vertex 421.5158212273877 -92.06434263510357 -1.49999999999998
    vertex 424.51582122738773 -92.06434263510357 0.5000000000000199
    vertex 434.21582122738766 -92.06434263510357 -1.49999999999998
  endloop
endfacet
facet normal 0.0 1.0 0.0
  outer loop
    vertex 424.51582122738773 -92.06434263510357 0.5000000000000199
    vertex 421.5158212273877 -92.06434263510357 -1.49999999999998
    vertex 421.5158212273877 -92.06434263510357 1.5000000000000198
  endloop
endfacet
facet normal 0.0 1.0 0.0
  outer loop
    vertex 424.51582122738773 -92.06434263510357 0.5000000000000199
    vertex 421.5158212273877 -92.06434263510357 1.5000000000000198
    vertex 424.51582122738773 -92.06434263510357 1.5000000000000198
  endloop
endfacet
facet normal 0.0 1.0 0.0
  outer loop
    vertex 434.21582122738766 -92.06434263510357 -1.49999999999998
    vertex 431.21582122738766 -92.06434263510357 0.5000000000000199
    vertex 434.21582122738766 -92.06434263510357 1.5000000000000198
  endloop
endfacet
facet normal 0.0 1.0 0.0
  outer loop
    vertex 431.21582122738766 -92.06434263510357 0.5000000000000199
    vertex 434.21582122738766 -92.06434263510357 -1.49999999999998
    vertex 424.51582122738773 -92.06434263510357 0.5000000000000199
  endloop
endfacet
facet normal 0.0 1.0 0.0
  outer loop
    vertex 434.21582122738766 -92.06434263510357 1.5000000000000198
    vertex 431.21582122738766 -92.06434263510357 0.5000000000000199
    vertex 431.21582122738766 -92.06434263510357 1.5000000000000198
  endloop
endfacet
facet normal -1.0 0.0 0.0
  outer loop
    vertex 421.5158212273877 -92.06434263510357 1.5000000000000198
    vertex 421.5158212273877 -106.06434263510357 -1.49999999999998
    vertex 421.5158212273877 -106.06434263510357 1.5000000000000198
  endloop
endfacet
facet normal -1.0 0.0 0.0
  outer loop
    vertex 421.5158212273877 -106.06434263510357 -1.49999999999998
    vertex 421.5158212273877 -92.06434263510357 1.5000000000000198
    vertex 421.5158212273877 -92.06434263510357 -1.49999999999998
  endloop
endfacet
facet normal 0.0 -1.0 0.0
  outer loop
    vertex 431.21582122738766 -106.06434263510357 1.5000000000000198
    vertex 421.5158212273877 -106.06434263510357 -1.49999999999998
    vertex 431.21582122738766 -106.06434263510357 -1.49999999999998
  endloop
endfacet
facet normal 0.0 -1.0 0.0
  outer loop
    vertex 421.5158212273877 -106.06434263510357 -1.49999999999998
    vertex 431.21582122738766 -106.06434263510357 1.5000000000000198
    vertex 421.5158212273877 -106.06434263510357 1.5000000000000198
  endloop
endfacet
facet normal 0.0 0.0 1.0
  outer loop
    vertex 431.21582122738766 -95.06434263510357 0.5000000000000199
    vertex 424.51582122738773 -92.06434263510357 0.5000000000000199
    vertex 424.51582122738773 -95.06434263510357 0.5000000000000199
  endloop
endfacet
facet normal 0.0 0.0 1.0
  outer loop
    vertex 424.51582122738773 -92.06434263510357 0.5000000000000199
    vertex 431.21582122738766 -95.06434263510357 0.5000000000000199
    vertex 431.21582122738766 -92.06434263510357 0.5000000000000199
  endloop
endfacet
facet normal -1.0 0.0 0.0
  outer loop
    vertex 431.21582122738766 -92.06434263510357 1.5000000000000198
    vertex 431.21582122738766 -95.06434263510357 0.5000000000000199
    vertex 431.21582122738766 -95.06434263510357 1.5000000000000198
  endloop
endfacet
facet normal -1.0 0.0 0.0
  outer loop
    vertex 431.21582122738766 -95.06434263510357 0.5000000000000199
    vertex 431.21582122738766 -92.06434263510357 1.5000000000000198
    vertex 431.21582122738766 -92.06434263510357 0.5000000000000199
  endloop
endfacet
facet normal 0.0 0.0 1.0
  outer loop
    vertex 434.21582122738766 -95.06434263510357 1.5000000000000198
    vertex 431.21582122738766 -92.06434263510357 1.5000000000000198
    vertex 431.21582122738766 -95.06434263510357 1.5000000000000198
  endloop
endfacet
facet normal 0.0 0.0 1.0
  outer loop
    vertex 431.21582122738766 -92.06434263510357 1.5000000000000198
    vertex 434.21582122738766 -95.06434263510357 1.5000000000000198
    vertex 434.21582122738766 -92.06434263510357 1.5000000000000198
  endloop
endfacet
endsolid TODAS LAS PARTES agujeros mayores
